<svg fill="none" height="62" viewBox="0 0 54 62" width="54" xmlns="http://www.w3.org/2000/svg"><rect fill="#02897a" height="54" rx="19" width="54"/><path d="m32.1161 28.5982-9.1429-9.1428c-.1071-.1161-.25-.1697-.4018-.1697-.0714 0-.1518.0179-.2143.0447-.2142.0892-.3571.2946-.3571.5267v13.4286c0 .2322.1429.4375.3571.5268.0625.0268.1429.0446.2143.0446.1518 0 .2947-.0625.4018-.1696l2.7857-2.7857 1.7054 4.0357c.125.2857.4553.4286.75.3036l1.5803-.6697c.2858-.125.4286-.4553.3036-.75l-1.7946-4.25h3.4107c.2321 0 .4375-.1428.5268-.3571.0893-.2054.0446-.4554-.125-.6161z" fill="#fff"/></svg>