<svg fill="none" height="62" viewBox="0 0 54 62" width="54" xmlns="http://www.w3.org/2000/svg"><rect fill="#4d8dff" height="54" rx="19" width="54"/><path d="m27.4821 25.6429 1.1697.5446 1.7411-.5179v-1.2142c0-2.0625-1.7411-3.7143-3.8215-3.7143-2.0714 0-3.8214 1.6428-3.8214 3.6875v5.5357c0 .5089-.4107.9107-.9107.9107s-.9107-.4018-.9107-.9107v-2.3393h-2.9286v2.375c0 2.1161 1.7143 3.8304 3.8304 3.8304 2.0982 0 3.8303-1.6875 3.8303-3.7768v-5.4643c0-.5.4107-.9107.9107-.9107s.9107.4107.9107.9107zm4.7322 1.9821v2.4554c0 .5-.4107.9017-.9107.9017s-.9107-.4017-.9107-.9017v-2.4108l-1.7411.5179-1.1697-.5446v2.3928c0 2.0982 1.7233 3.7947 3.8304 3.7947 2.1161 0 3.8304-1.7143 3.8304-3.8304 0 0 0-.0268 0-2.375z" fill="#fff"/></svg>