<svg fill="none" height="54" viewBox="0 0 54 54" width="54" xmlns="http://www.w3.org/2000/svg" xmlns:xlink="http://www.w3.org/1999/xlink"><clipPath id="a"><path d="m0 0h54v54h-54z"/></clipPath><g clip-path="url(#a)"><rect fill="#f03e3d" height="54" rx="19" width="54"/><path d="m32.5714 20.4286h.8572c.1607 0 .2857-.125.2857-.2857v-.5715c0-.1607-.125-.2857-.2857-.2857h-13.1429c-.1607 0-.2857.125-.2857.2857v.5715c0 .1607.125.2857.2857.2857h.8572c0 3.3035 1.5803 5.6964 3.3303 6.8571-1.75 1.1607-3.3303 3.5536-3.3303 6.8572h-.8572c-.1607 0-.2857.125-.2857.2857v.5714c0 .1607.125.2857.2857.2857h13.1429c.1607 0 .2857-.125.2857-.2857v-.5714c0-.1607-.125-.2857-.2857-.2857h-.8572c0-3.3036-1.5803-5.6965-3.3303-6.8572 1.75-1.1607 3.3303-3.5536 3.3303-6.8571zm-1.1428 0c0 1.3035-.2947 2.4553-.759 3.4285h-7.625c-.4642-.9732-.7589-2.125-.7589-3.4285zm-.509 10.8571h-8.125c.6608-1.7232 1.8483-2.9464 3.0358-3.4286h2.0535c1.1875.4822 2.375 1.7054 3.0357 3.4286z" fill="#fff"/></g></svg>