<svg fill="none" height="36" viewBox="0 0 40 36" width="40" xmlns="http://www.w3.org/2000/svg"><g clip-rule="evenodd" fill-rule="evenodd"><path d="m3.13307 34.1139c-1.72319 0-3.13306984-1.3957-3.13306985-3.1017l-.00000008-10.844h7.88630993v-.012h4.73999c1.2219-.0311 2.2558-1.0856 2.2558-2.3263 0-1.2717-1.0653-2.3263-2.3498-2.3263h-6.26616v.0019h-6.26613996l-.00000002-3.1037c-.00000001-1.7059 1.40987998-3.10168 3.13306998-3.10168h9.39923c2.3811 0 4.4176.83748 6.0781 2.51238 1.6919 1.6439 2.5378 3.6601 2.5378 6.0174 0 2.3263-.8146 4.3424-2.4751 5.9863s-3.6657 2.5124-6.0155 2.5434h-6.39146v4.6526c0 1.706-1.40988 3.1017-3.13307 3.1017z" fill="#02bc6b"/><path d="m25.0975 5.7002c3.4614 3.3285 5.2056 7.474 5.2056 12.1863 0 4.6332-1.6712 8.7748-5.0792 12.1137l-4.8387-4.5071c2.1195-2.0765 3.1598-4.5765 3.1598-7.6066 0-3.0532-1.0716-5.5493-3.2419-7.6363z" fill="#02897a"/><path d="m32.5055-.00000003c4.9856 4.92801003 7.4944 11.03840003 7.4944 18.05140003 0 6.9035-2.4077 13.01-7.3115 17.9486l-4.6698-4.5172c3.6529-3.6787 5.4428-8.1406 5.4428-13.4314 0-5.344-1.8503-9.80201-5.5827-13.49132z" fill="#035b81"/><path d="m0 26.3857h6.26614v4.6269c0 1.706-1.40988 3.1017-3.13307 3.1017s-3.13306996-1.3957-3.13306997-3.1017z" fill="#028e37"/></g></svg>